<?xml version="1.0" encoding="UTF-8" standalone="no"?>
<!-- Created with Inkscape (http://www.inkscape.org/) -->

<svg
   xmlns:dc="http://purl.org/dc/elements/1.1/"
   xmlns:cc="http://creativecommons.org/ns#"
   xmlns:rdf="http://www.w3.org/1999/02/22-rdf-syntax-ns#"
   xmlns:svg="http://www.w3.org/2000/svg"
   xmlns="http://www.w3.org/2000/svg"
   xmlns:xlink="http://www.w3.org/1999/xlink"
   xmlns:sodipodi="http://sodipodi.sourceforge.net/DTD/sodipodi-0.dtd"
   xmlns:inkscape="http://www.inkscape.org/namespaces/inkscape"
   id="svg4386"
   version="1.1"
   inkscape:version="0.91 r13725"
   width="547.5"
   height="550"
   viewBox="0 0 547.5 550"
   sodipodi:docname="jbjstudio.svg">
  <metadata
     id="metadata4392">
    <rdf:RDF>
      <cc:Work
         rdf:about="">
        <dc:format>image/svg+xml</dc:format>
        <dc:type
           rdf:resource="http://purl.org/dc/dcmitype/StillImage" />
        <dc:title></dc:title>
      </cc:Work>
    </rdf:RDF>
  </metadata>
  <defs
     id="defs4390" />
  <sodipodi:namedview
     pagecolor="#81ff7c"
     bordercolor="#666666"
     borderopacity="1"
     objecttolerance="10"
     gridtolerance="10"
     guidetolerance="10"
     inkscape:pageopacity="1"
     inkscape:pageshadow="2"
     inkscape:window-width="1072"
     inkscape:window-height="725"
     id="namedview4388"
     showgrid="false"
     showguides="false"
     inkscape:zoom="1.0054545"
     inkscape:cx="282.70959"
     inkscape:cy="290.25428"
     inkscape:window-x="105"
     inkscape:window-y="12"
     inkscape:window-maximized="0"
     inkscape:current-layer="g4733" />
  <g
     inkscape:label="Layer 2 copy"
     id="g4733"
     inkscape:groupmode="layer">
    <rect
       y="34.810127"
       x="71.609406"
       height="431.64557"
       width="419.71066"
       id="rect4735"
       style="fill:#00ff00;fill-opacity:0;stroke:#000000;stroke-opacity:1" />
    <path
       sodipodi:type="inkscape:offset"
       inkscape:radius="0"
       inkscape:original="M 188.3457 8.6855469 C 160.72368 9.2728265 132.88906 7.6148433 105.52148 11.214844 C 61.799152 19.423726 24.742043 54.138214 13.199219 97.042969 C 8.591266 115.4044 10.53089 134.56292 9.7304688 153.32812 C 9.5743715 241.36944 8.7851368 329.41906 9.6601562 417.45703 C 9.6733302 434.08955 11.01717 451.08047 18.007812 466.46875 C 33.370613 505.54066 71.270998 534.9931 112.97266 539.61523 C 174.11076 541.10031 235.42661 539.99693 296.63281 540.25 C 345.1855 540.0167 393.83377 540.49201 442.32617 539.81641 C 472.93548 533.09493 501.70622 516.00643 519.44141 489.80078 C 534.95357 467.312 541.91823 439.91282 540.72461 412.76562 C 541.20142 319.33289 541.05442 225.89096 540.25586 132.46094 C 540.13847 116.97747 539.73807 100.8658 533.30273 86.546875 C 519.17974 47.121776 482.53481 18.103024 441.88477 10.417969 C 427.98534 7.7018348 413.53705 9.7849568 399.4082 9.078125 C 329.05405 8.9425716 258.70003 8.6884923 188.3457 8.6855469 z M 409.24219 98.527344 C 409.91341 98.534544 410.58464 98.541668 411.25586 98.548828 C 428.71613 98.73509 446.17644 98.918332 463.63672 99.103516 C 463.29603 156.05819 464.35522 213.03551 463.02148 269.97656 C 463.2479 290.52647 451.06815 311.15742 431.89258 319.27148 C 415.20261 327.15462 396.13904 325.08129 378.24609 324.92773 C 371.42869 323.97577 363.35619 325.18589 357.48047 321.11133 C 355.04943 311.40367 356.90663 300.94387 356.47266 290.98438 C 356.05671 289.51932 357.55862 277.57357 355.89062 283.0293 C 349.66354 300.37365 334.8821 314.16507 317.00391 318.84961 C 300.78259 323.91069 283.42548 321.23655 266.72852 322.23047 C 242.45583 321.97402 218.07708 323.42112 193.86133 321.70508 C 189.45109 320.11005 192.41414 313.82422 191.44727 310.33398 C 191.10637 239.92024 191.54587 169.5057 191.63867 99.091797 C 228.96461 99.369785 266.34772 97.705999 303.64062 99.611328 C 332.62061 100.78909 356.53507 129.00269 354.41992 157.64844 C 354.92955 172.57866 349.13491 187.87856 337.14844 197.19727 C 333.08619 200.68545 328.29818 203.11984 323.62891 205.66016 C 347.00858 213.48998 361.78056 238.51084 360.07031 262.6875 C 359.84795 267.54076 359.09333 272.37028 357.82031 277.05859 C 369.97937 276.76185 382.39154 279.14526 394.40039 276.96484 C 402.32683 274.08281 409.51724 266.60245 408.00586 257.56055 C 409.24668 204.61757 408.82114 151.52692 409.24219 98.527344 z M 180.64648 98.53125 L 180.88867 99.501953 L 181.0293 100.0625 C 182.95017 111.5711 181.41652 123.48264 181.97461 135.13086 C 181.68148 181.13198 182.42276 227.17174 180.80273 273.14648 C 178.86273 292.60005 167.80842 312.35932 148.875 319.64844 C 132.36557 327.17192 113.7606 324.75116 96.177734 325.05078 C 89.424596 324.37268 81.802742 325.14568 75.705078 321.90039 C 72.715829 316.03269 74.875607 308.75787 74.136719 302.41406 C 74.131019 293.68164 74.136356 284.94922 74.134766 276.2168 C 88.047591 276.61573 102.72784 280.91531 116.02539 275.08594 C 121.19836 272.50212 125.27513 267.8254 124.80664 261.70117 C 126.7954 220.5284 125.7464 178.91601 126.41016 137.57031 C 126.48856 124.74776 126.56863 111.92607 126.64648 99.103516 C 144.64648 98.912022 162.64652 98.725069 180.64648 98.53125 z M 266.14844 142.07227 C 258.30523 142.05727 250.45151 142.15403 242.61133 142.08203 C 242.52993 149.0651 242.44857 156.04818 242.36719 163.03125 C 242.52905 170.35764 241.73092 178.17158 242.93359 185.06445 C 258.32239 185.28379 273.90467 186.12855 289.0957 183.43945 C 305.97022 177.47463 306.48039 149.16232 289.625 142.73633 C 281.82434 142.21436 273.99164 142.08728 266.14844 142.07227 z M 255.10742 228.59375 C 251.00756 228.9404 246.24131 228.07249 242.70312 229.33984 C 241.65142 245.04842 242.12137 261.24488 242.58203 277.15625 C 258.83895 277.3245 275.63916 278.88579 291.76562 275.49414 C 311.07315 270.26826 311.97058 238.40055 293.25586 231.65234 C 281.10319 227.32451 267.75656 229.24122 255.10742 228.59375 z M 427.87891 373.80664 C 449.58054 373.17615 470.155 393.26211 467.50586 415.34375 C 465.71954 435.97386 444.86981 451.64911 424.60156 449.07812 C 412.68994 448.54327 401.87309 441.78713 395.35352 431.92188 C 383.5344 416.12396 389.04912 391.72032 405.22461 381.04297 C 411.76097 376.32131 419.84517 373.89048 427.87891 373.80664 z M 275.6582 374.59961 L 278.24414 375.43164 C 286.42821 372.68744 282.22473 382.49298 283.11328 387.45312 C 282.33216 401.38446 283.98306 415.61059 281.45117 429.38086 C 277.58262 441.03755 265.67679 448.80879 253.46289 448.11328 C 238.45262 448.59864 223.45105 435.38802 224.75391 419.85938 C 224.52123 405.26844 224.68561 390.67433 224.63477 376.08203 C 232.19198 374.46118 235.36493 377.32151 233.78516 385.03711 C 234.38258 399.43352 233.69436 414.18949 235.96484 428.25586 C 240.90279 441.00004 260.00089 444.82849 268.94336 434.34766 C 277.34275 423.66555 274.49457 409.18107 275.43164 396.55078 C 275.50714 389.23363 275.58411 381.91677 275.6582 374.59961 z M 313.86133 374.68555 C 326.69415 374.85013 339.8821 379.99633 346.98047 391.15234 C 356.20889 403.41522 356.32415 421.5407 346.51758 433.50781 C 338.78591 444.04336 325.51365 448.89132 312.73438 448.45703 C 307.49432 448.04298 300.94458 449.9864 296.5293 446.63867 C 294.67282 437.36721 296.5078 427.53476 295.89844 418.08203 C 295.84244 403.77 295.70895 389.45835 295.62109 375.14648 C 300.84776 375.02029 306.0719 374.71331 311.30078 374.71875 C 312.15123 374.68575 313.00581 374.67455 313.86133 374.68555 z M 129.7207 375.2793 C 133.34667 375.62388 140.69461 373.91606 141.01562 379.41602 C 140.98483 385.71834 133.00506 383.88792 128.9668 384.42578 C 119.24887 385.29311 109.00015 383.24394 99.613281 386.07227 C 94.244218 390.21501 99.385272 398.45179 105.36719 397.52734 C 117.54552 397.71435 132.7245 396.46154 140.92188 407.50586 C 148.47428 417.1561 147.9636 432.76927 138.125 440.78711 C 131.72722 448.24037 121.44711 448.37424 112.42773 448.31836 C 104.87605 448.03053 96.863614 449.51038 89.546875 447.53711 C 86.877124 444.88905 88.068935 439.42666 92.421875 439.86523 C 104.09589 438.55642 116.54413 441.50082 127.68164 437.05859 C 137.19617 431.88725 140.19108 416.7579 129.99805 410.56445 C 119.07445 404.80642 105.46996 409.97648 94.296875 404.68555 C 84.72999 398.86075 85.035143 382.61723 95.101562 377.55664 C 106.19853 374.30851 118.30695 375.98208 129.7207 375.2793 z M 198.92383 375.55078 C 203.51335 375.48718 208.07028 375.66185 212.42188 376.94922 C 215.82548 379.2434 213.17058 384.22388 209.44922 384.02148 C 203.05623 384.92355 196.56591 384.41563 190.13477 384.58008 C 189.79548 404.97462 190.84062 425.50617 189.34961 445.83008 C 187.52405 450.94472 180.26431 447.7227 180.8418 443.03906 C 179.62997 423.58319 180.34211 404.0633 180.13477 384.58203 C 172.92069 383.71559 164.61172 386.27363 157.94727 382.73438 C 154.58373 380.20272 157.37618 375.73506 161.14844 376.17188 C 169.13968 375.36802 177.20807 375.69998 185.22656 375.58203 C 189.7122 375.91644 194.3343 375.61438 198.92383 375.55078 z M 371.73633 376.08398 C 376.84693 376.8302 374.94732 383.91582 375.61133 387.44922 C 375.53273 406.62158 376.9093 425.91852 375.21289 445.02539 C 374.55179 448.94835 368.13557 449.42462 368.05859 444.85547 C 366.33926 425.48581 367.7467 405.93294 367.6875 386.50195 C 368.28197 383.41689 366.68428 376.11148 371.73633 376.08398 z M 428.81445 382.97266 C 427.99129 382.96216 427.16606 382.98683 426.33984 383.04883 C 409.4884 383.4797 395.04495 401.36675 399.18945 418.11523 C 402.65847 432.22688 417.97904 442.81388 432.35352 439.91211 C 449.50998 438.54993 462.75148 419.66718 456.72852 403.19336 C 452.92025 391.2952 441.16183 383.13027 428.81445 382.97266 z M 307.07227 383.42773 C 304.49223 383.45113 304.24609 386.30305 304.4082 388.77344 C 304.08277 405.60429 303.78087 422.79331 304.75 439.41602 C 315.39668 439.84304 327.93604 440.26332 335.65625 431.51953 C 347.13934 421.64908 346.96465 401.57117 334.84375 392.25586 C 327.89005 385.28039 317.75575 383.67577 308.32617 383.59961 C 307.8567 383.47812 307.44084 383.42439 307.07227 383.42773 z "
       xlink:href="#path4737"
       style="fill:#000000"
       id="path4742"
       inkscape:href="#path4737"
       d="M 188.3457,8.6855469 C 160.72368,9.2728265 132.88906,7.6148433 105.52148,11.214844 61.799152,19.423726 24.742043,54.138214 13.199219,97.042969 8.591266,115.4044 10.53089,134.56292 9.7304688,153.32812 c -0.1560973,88.04132 -0.945332,176.09094 -0.070313,264.12891 0.013174,16.63252 1.3570138,33.62344 8.3476558,49.01172 15.362801,39.07191 53.263186,68.52435 94.964848,73.14648 61.1381,1.48508 122.45395,0.3817 183.66015,0.63477 48.55269,-0.2333 97.20096,0.24201 145.69336,-0.43359 30.60931,-6.72148 59.38005,-23.80998 77.11524,-50.01563 15.51216,-22.48878 22.47682,-49.88796 21.2832,-77.03516 0.47681,-93.43273 0.32981,-186.87466 -0.46875,-280.30468 -0.11739,-15.48347 -0.51779,-31.59514 -6.95313,-45.914065 C 519.17974,47.121776 482.53481,18.103024 441.88477,10.417969 427.98534,7.7018348 413.53705,9.7849568 399.4082,9.078125 329.05405,8.9425716 258.70003,8.6884923 188.3457,8.6855469 Z M 409.24219,98.527344 c 0.67122,0.0072 1.34245,0.01432 2.01367,0.02148 17.46027,0.186262 34.92058,0.369504 52.38086,0.554688 -0.34069,56.954674 0.7185,113.931994 -0.61524,170.873044 0.22642,20.54991 -11.95333,41.18086 -31.1289,49.29492 -16.68997,7.88314 -35.75354,5.80981 -53.64649,5.65625 -6.8174,-0.95196 -14.8899,0.25816 -20.76562,-3.8164 -2.43104,-9.70766 -0.57384,-20.16746 -1.00781,-30.12695 -0.41595,-1.46506 1.08596,-13.41081 -0.58204,-7.95508 -6.22708,17.34435 -21.00852,31.13577 -38.88671,35.82031 -16.22132,5.06108 -33.57843,2.38694 -50.27539,3.38086 -24.27269,-0.25645 -48.65144,1.19065 -72.86719,-0.52539 -4.41024,-1.59503 -1.44719,-7.88086 -2.41406,-11.3711 -0.3409,-70.41374 0.0986,-140.82828 0.1914,-211.242183 37.32594,0.277988 74.70905,-1.385798 112.00195,0.519531 28.97999,1.177762 52.89445,29.391362 50.7793,58.037112 0.50963,14.93022 -5.28501,30.23012 -17.27148,39.54883 -4.06225,3.48818 -8.85026,5.92257 -13.51953,8.46289 23.37967,7.82982 38.15165,32.85068 36.4414,57.02734 -0.22236,4.85326 -0.97698,9.68278 -2.25,14.37109 12.15906,-0.29674 24.57123,2.08667 36.58008,-0.0937 7.92644,-2.88203 15.11685,-10.36239 13.60547,-19.40429 1.24082,-52.94298 0.81528,-106.03363 1.23633,-159.033206 z m -228.59571,0.0039 0.24219,0.970703 0.14063,0.560547 c 1.92087,11.5086 0.38722,23.42014 0.94531,35.06836 -0.29313,46.00112 0.44815,92.04088 -1.17188,138.01562 -1.94,19.45357 -12.99431,39.21284 -31.92773,46.50196 -16.50943,7.52348 -35.1144,5.10272 -52.697266,5.40234 -6.753138,-0.6781 -14.374992,0.0949 -20.472656,-3.15039 -2.989249,-5.8677 -0.829471,-13.14252 -1.568359,-19.48633 -0.0057,-8.73242 -3.63e-4,-17.46484 -0.002,-26.19726 13.912825,0.39893 28.593074,4.69851 41.890624,-1.13086 5.17297,-2.58382 9.24974,-7.26054 8.78125,-13.38477 1.98876,-41.17277 0.93976,-82.78516 1.60352,-124.13086 0.0784,-12.82255 0.15847,-25.64424 0.23632,-38.466794 18,-0.191494 36.00004,-0.378447 54,-0.572266 z m 85.50196,43.54102 c -7.84321,-0.015 -15.69693,0.0818 -23.53711,0.01 -0.0814,6.98307 -0.16276,13.96615 -0.24414,20.94922 0.16186,7.32639 -0.63627,15.14033 0.5664,22.0332 15.3888,0.21934 30.97108,1.0641 46.16211,-1.625 16.87452,-5.96482 17.38469,-34.27713 0.5293,-40.70312 -7.80066,-0.52197 -15.63336,-0.64905 -23.47656,-0.66406 z m -11.04102,86.52148 c -4.09986,0.34665 -8.86611,-0.52126 -12.4043,0.74609 -1.0517,15.70858 -0.58175,31.90504 -0.12109,47.81641 16.25692,0.16825 33.05713,1.72954 49.18359,-1.66211 19.30753,-5.22588 20.20496,-37.09359 1.49024,-43.8418 -12.15267,-4.32783 -25.4993,-2.41112 -38.14844,-3.05859 z m 172.77149,145.21289 c 21.70163,-0.63049 42.27609,19.45547 39.62695,41.53711 -1.78632,20.63011 -22.63605,36.30536 -42.9043,33.73437 -11.91162,-0.53485 -22.72847,-7.29099 -29.24804,-17.15624 -11.81912,-15.79792 -6.3044,-40.20156 9.87109,-50.87891 6.53636,-4.72166 14.62056,-7.15249 22.6543,-7.23633 z m -152.22071,0.79297 2.58594,0.83203 c 8.18407,-2.7442 3.98059,7.06134 4.86914,12.02148 -0.78112,13.93134 0.86978,28.15747 -1.66211,41.92774 -3.86855,11.65669 -15.77438,19.42793 -27.98828,18.73242 -15.01027,0.48536 -30.01184,-12.72526 -28.70898,-28.2539 -0.23268,-14.59094 -0.0683,-29.18505 -0.11914,-43.77735 7.55721,-1.62085 10.73016,1.23948 9.15039,8.95508 0.59742,14.39641 -0.0908,29.15238 2.17968,43.21875 4.93795,12.74418 24.03605,16.57263 32.97852,6.0918 8.39939,-10.68211 5.55121,-25.16659 6.48828,-37.79688 0.0755,-7.31715 0.15247,-14.63401 0.22656,-21.95117 z m 38.20313,0.0859 c 12.83282,0.16458 26.02077,5.31078 33.11914,16.46679 9.22842,12.26288 9.34368,30.38836 -0.46289,42.35547 -7.73167,10.53555 -21.00393,15.38351 -33.7832,14.94922 -5.24006,-0.41405 -11.7898,1.52937 -16.20508,-1.81836 -1.85648,-9.27146 -0.0215,-19.10391 -0.63086,-28.55664 -0.056,-14.31203 -0.18949,-28.62368 -0.27735,-42.93555 5.22667,-0.12619 10.45081,-0.43317 15.67969,-0.42773 0.85045,-0.033 1.70503,-0.0442 2.56055,-0.0332 z M 129.7207,375.2793 c 3.62597,0.34458 10.97391,-1.36324 11.29492,4.13672 -0.0308,6.30232 -8.01056,4.4719 -12.04882,5.00976 -9.71793,0.86733 -19.96665,-1.18184 -29.353519,1.64649 -5.369063,4.14274 -0.228009,12.37952 5.753909,11.45507 12.17833,0.18701 27.35731,-1.0658 35.55469,9.97852 7.5524,9.65024 7.04172,25.26341 -2.79688,33.28125 -6.39778,7.45326 -16.67789,7.58713 -25.69727,7.53125 -7.55168,-0.28783 -15.564116,1.19202 -22.880855,-0.78125 -2.669751,-2.64806 -1.47794,-8.11045 2.875,-7.67188 11.674015,-1.30881 24.122255,1.63559 35.259765,-2.80664 9.51453,-5.17134 12.50944,-20.30069 2.31641,-26.49414 -10.9236,-5.75803 -24.52809,-0.58797 -35.701175,-5.8789 -9.566885,-5.8248 -9.261732,-22.06832 0.804687,-27.12891 11.096968,-3.24813 23.205388,-1.57456 34.619138,-2.27734 z m 69.20313,0.27148 c 4.58952,-0.0636 9.14645,0.11107 13.49805,1.39844 3.4036,2.29418 0.7487,7.27466 -2.97266,7.07226 -6.39299,0.90207 -12.88331,0.39415 -19.31445,0.5586 -0.33929,20.39454 0.70585,40.92609 -0.78516,61.25 -1.82556,5.11464 -9.0853,1.89262 -8.50781,-2.79102 -1.21183,-19.45587 -0.49969,-38.97576 -0.70703,-58.45703 -7.21408,-0.86644 -15.52305,1.6916 -22.1875,-1.84765 -3.36354,-2.53166 -0.57109,-6.99932 3.20117,-6.5625 7.99124,-0.80386 16.05963,-0.4719 24.07812,-0.58985 4.48564,0.33441 9.10774,0.0324 13.69727,-0.0312 z m 172.8125,0.5332 c 5.1106,0.74622 3.21099,7.83184 3.875,11.36524 -0.0786,19.17236 1.29797,38.4693 -0.39844,57.57617 -0.6611,3.92296 -7.07732,4.39923 -7.1543,-0.16992 -1.71933,-19.36966 -0.31189,-38.92253 -0.37109,-58.35352 0.59447,-3.08506 -1.00322,-10.39047 4.04883,-10.41797 z m 57.07812,6.88868 c -0.82316,-0.0105 -1.64839,0.0142 -2.47461,0.0762 -16.85144,0.43087 -31.29489,18.31792 -27.15039,35.0664 3.46902,14.11165 18.78959,24.69865 33.16407,21.79688 17.15646,-1.36218 30.39796,-20.24493 24.375,-36.71875 -3.80827,-11.89816 -15.56669,-20.06309 -27.91407,-20.2207 z m -121.74218,0.45507 c -2.58004,0.0234 -2.82618,2.87532 -2.66407,5.34571 -0.32543,16.83085 -0.62733,34.01987 0.3418,50.64258 10.64668,0.42702 23.18604,0.8473 30.90625,-7.89649 11.48309,-9.87045 11.3084,-29.94836 -0.8125,-39.26367 -6.9537,-6.97547 -17.088,-8.58009 -26.51758,-8.65625 -0.46947,-0.12149 -0.88533,-0.17522 -1.2539,-0.17188 z" />
    <path
       style="fill:#000000"
       d="M 188.3457,8.6855469 C 160.72368,9.2728265 132.88906,7.6148435 105.52148,11.214844 61.799148,19.423726 24.742043,54.138214 13.199219,97.042969 8.5912662,115.4044 10.53089,134.56291 9.7304688,153.32812 9.5743716,241.36943 8.7851367,329.41906 9.6601562,417.45703 c 0.013174,16.63252 1.3570138,33.62344 8.3476558,49.01172 15.362801,39.07191 53.26319,68.52435 94.964848,73.14648 61.1381,1.48508 122.45395,0.3817 183.66015,0.63477 48.55269,-0.2333 97.20096,0.24201 145.69336,-0.43359 30.60931,-6.72148 59.38005,-23.80998 77.11524,-50.01563 15.51216,-22.48878 22.47682,-49.88796 21.2832,-77.03516 0.47681,-93.43274 0.32981,-186.87466 -0.46875,-280.30468 -0.11739,-15.48347 -0.51779,-31.59514 -6.95313,-45.914065 C 519.17974,47.121776 482.53481,18.103024 441.88477,10.417969 427.98534,7.701835 413.53705,9.7849568 399.4082,9.078125 329.05405,8.9425716 258.70003,8.6884923 188.3457,8.6855469 Z M 409.24219,98.527344 c 0.67122,0.0072 1.34245,0.01432 2.01367,0.02148 17.46027,0.186262 34.92058,0.369504 52.38086,0.554688 -0.34069,56.954678 0.7185,113.931998 -0.61524,170.873048 0.22642,20.54991 -11.95333,41.18086 -31.1289,49.29492 -16.68997,7.88314 -35.75354,5.80981 -53.64649,5.65625 -6.8174,-0.95196 -14.8899,0.25816 -20.76562,-3.8164 -2.43104,-9.70766 -0.57384,-20.16746 -1.00781,-30.12695 -0.41595,-1.46506 1.08595,-13.41081 -0.58204,-7.95508 -6.22708,17.34435 -21.00852,31.13577 -38.88671,35.82031 -16.22132,5.06108 -33.57843,2.38694 -50.27539,3.38086 -24.27269,-0.25645 -48.65144,1.19065 -72.86719,-0.52539 -4.41024,-1.59503 -1.44719,-7.88086 -2.41406,-11.3711 -0.3409,-70.41374 0.0986,-140.82828 0.1914,-211.242187 37.32594,0.277988 74.70904,-1.385798 112.00195,0.519531 28.97999,1.177766 52.89445,29.391366 50.7793,58.037116 0.50963,14.93022 -5.28501,30.23012 -17.27148,39.54883 -4.06225,3.48818 -8.85026,5.92257 -13.51953,8.46289 23.37967,7.82982 38.15165,32.85068 36.4414,57.02734 -0.22236,4.85326 -0.97698,9.68278 -2.25,14.37109 12.15906,-0.29674 24.57123,2.08672 36.58008,-0.0937 7.92644,-2.88203 15.11685,-10.36239 13.60547,-19.40429 1.24082,-52.94298 0.81528,-106.03363 1.23633,-159.03321 z m -228.59571,0.0039 0.24219,0.970703 0.14063,0.560543 c 1.92087,11.5086 0.38722,23.42014 0.94531,35.06836 -0.29313,46.00112 0.44815,92.04088 -1.17188,138.01562 -1.94,19.45357 -12.99431,39.21284 -31.92773,46.50196 -16.50943,7.52348 -35.1144,5.10272 -52.697266,5.40234 -6.753138,-0.6781 -14.374992,0.0949 -20.472656,-3.15039 -2.989249,-5.8677 -0.829471,-13.14252 -1.568359,-19.48633 -0.0057,-8.73242 -4.1e-4,-17.46484 -0.002,-26.19726 13.912825,0.39893 28.593071,4.69851 41.890621,-1.13086 5.17297,-2.58382 9.24974,-7.26054 8.78125,-13.38477 1.98876,-41.17277 0.93976,-82.78516 1.60352,-124.13086 0.0784,-12.82255 0.15847,-25.64424 0.23632,-38.46679 18,-0.191494 36.00004,-0.378447 54,-0.572266 z m 85.50196,43.541016 c -7.84321,-0.015 -15.69693,0.082 -23.53711,0.01 -0.0814,6.98307 -0.16276,13.96615 -0.24414,20.94922 0.16186,7.32639 -0.63627,15.14033 0.5664,22.0332 15.3888,0.21934 30.97108,1.0641 46.16211,-1.625 16.87452,-5.96482 17.38469,-34.27713 0.5293,-40.70312 -7.80066,-0.52197 -15.63336,-0.64905 -23.47656,-0.66406 z m -11.04102,86.52148 c -4.09986,0.34665 -8.86611,-0.52126 -12.4043,0.74609 -1.0517,15.70858 -0.58175,31.90504 -0.12109,47.81641 16.25692,0.16825 33.05713,1.72954 49.18359,-1.66211 19.30753,-5.22588 20.20496,-37.09359 1.49024,-43.8418 -12.15267,-4.32783 -25.4993,-2.41112 -38.14844,-3.05859 z m 172.77149,145.21289 c 21.70163,-0.63049 42.27609,19.45547 39.62695,41.53711 -1.78632,20.63011 -22.63605,36.30536 -42.9043,33.73437 -11.91162,-0.53485 -22.72847,-7.29099 -29.24804,-17.15624 -11.81912,-15.79792 -6.3044,-40.20156 9.87109,-50.87891 6.53636,-4.72166 14.62056,-7.15249 22.6543,-7.23633 z m -152.22071,0.79297 2.58594,0.83203 c 8.18407,-2.7442 3.98059,7.06134 4.86914,12.02148 -0.78112,13.93134 0.86978,28.15747 -1.66211,41.92774 -3.86855,11.65669 -15.77438,19.42793 -27.98828,18.73242 -15.01027,0.48536 -30.01184,-12.72526 -28.70898,-28.2539 -0.23268,-14.59094 -0.0683,-29.18505 -0.11914,-43.77735 7.55721,-1.62085 10.73016,1.23948 9.15039,8.95508 0.59742,14.39641 -0.0908,29.15238 2.17968,43.21875 4.93795,12.74418 24.03605,16.57263 32.97852,6.0918 8.39939,-10.68211 5.55121,-25.16659 6.48828,-37.79688 0.0755,-7.31715 0.15247,-14.63401 0.22656,-21.95117 z m 38.20313,0.0859 c 12.83282,0.16458 26.02077,5.31078 33.11914,16.46679 9.22842,12.26288 9.34368,30.38836 -0.46289,42.35547 -7.73167,10.53555 -21.00393,15.38351 -33.7832,14.94922 -5.24006,-0.41405 -11.7898,1.52937 -16.20508,-1.81836 -1.85648,-9.27146 -0.0215,-19.10391 -0.63086,-28.55664 -0.056,-14.31203 -0.18949,-28.62368 -0.27735,-42.93555 5.22667,-0.12619 10.45081,-0.43317 15.67969,-0.42773 0.85045,-0.033 1.70503,-0.0442 2.56055,-0.0332 z m -184.14063,0.5938 c 3.62597,0.34458 10.97391,-1.36324 11.29492,4.13672 -0.0308,6.30232 -8.01056,4.4719 -12.04882,5.00976 -9.71793,0.86733 -19.96665,-1.18184 -29.353519,1.64649 -5.369063,4.14274 -0.228007,12.37952 5.753909,11.45507 12.17833,0.18701 27.35731,-1.0658 35.55469,9.97852 7.5524,9.65024 7.04172,25.26341 -2.79688,33.28125 -6.39778,7.45326 -16.67789,7.58713 -25.69727,7.53125 -7.55168,-0.28783 -15.564116,1.19202 -22.880855,-0.78125 -2.669751,-2.64806 -1.47794,-8.11045 2.875,-7.67188 11.674015,-1.30881 24.122255,1.63559 35.259765,-2.80664 9.51453,-5.17134 12.50944,-20.30069 2.31641,-26.49414 -10.9236,-5.75803 -24.52809,-0.58797 -35.701175,-5.8789 -9.566885,-5.8248 -9.261732,-22.06832 0.804687,-27.12891 11.096968,-3.24813 23.205388,-1.57456 34.619138,-2.27734 z m 69.20313,0.27148 c 4.58952,-0.0636 9.14645,0.11107 13.49805,1.39844 3.4036,2.29418 0.7487,7.27466 -2.97266,7.07226 -6.39299,0.90207 -12.88331,0.39415 -19.31445,0.5586 -0.33929,20.39454 0.70585,40.92609 -0.78516,61.25 -1.82556,5.11464 -9.0853,1.89262 -8.50781,-2.79102 -1.21183,-19.45587 -0.49969,-38.97576 -0.70703,-58.45703 -7.21408,-0.86644 -15.52305,1.6916 -22.1875,-1.84765 -3.36354,-2.53166 -0.57109,-6.99932 3.20117,-6.5625 7.99124,-0.80386 16.05963,-0.4719 24.07812,-0.58985 4.48564,0.33441 9.10774,0.0324 13.69727,-0.0312 z m 172.8125,0.5332 c 5.1106,0.74622 3.21099,7.83184 3.875,11.36524 -0.0786,19.17236 1.29797,38.4693 -0.39844,57.57617 -0.6611,3.92296 -7.07732,4.39923 -7.1543,-0.16992 -1.71933,-19.36966 -0.31189,-38.92253 -0.37109,-58.35352 0.59447,-3.08506 -1.00322,-10.39047 4.04883,-10.41797 z m 57.07812,6.88868 c -0.82316,-0.0105 -1.64839,0.0142 -2.47461,0.0762 -16.85144,0.43087 -31.29489,18.31792 -27.15039,35.0664 3.46902,14.11165 18.78959,24.69865 33.16407,21.79688 17.15646,-1.36218 30.39796,-20.24493 24.375,-36.71875 -3.80827,-11.89816 -15.56669,-20.06309 -27.91407,-20.2207 z m -121.74218,0.45507 c -2.58004,0.0234 -2.82618,2.87532 -2.66407,5.34571 -0.32543,16.83085 -0.62733,34.01987 0.3418,50.64258 10.64668,0.42702 23.18604,0.8473 30.90625,-7.89649 11.48309,-9.87045 11.3084,-29.94836 -0.8125,-39.26367 -6.9537,-6.97547 -17.088,-8.58009 -26.51758,-8.65625 -0.46947,-0.12149 -0.88533,-0.17522 -1.2539,-0.17188 z"
       id="path4737"
       inkscape:connector-curvature="0" />
    <rect
       style="opacity:1;fill:#ffffff;fill-opacity:1;stroke:#000000;stroke-width:9.9712429;stroke-opacity:1"
       id="rect4746"
       width="441.57126"
       height="414.71771"
       x="58.192677"
       y="67.143852" />
  </g>
  <path
     style="fill:#ffffff;fill-opacity:0;stroke:#000000;stroke-width:1.40654147;stroke-opacity:1"
     d="m 80.472489,320.97793 c -3.107112,-0.59845 -3.164718,-0.97806 -3.164718,-20.85403 l 0,-20.24446 17.230133,0.25928 c 18.715206,0.28163 22.299496,-0.71015 29.180306,-8.07427 l 3.51093,-3.75753 0.92908,-38.92399 c 0.511,-21.40819 0.98815,-59.01995 1.06034,-83.58168 l 0.13125,-44.6577 24.39931,0 24.39931,0 0.70837,15.8236 c 0.3896,8.70297 0.31165,48.73666 -0.17322,88.96375 -0.84863,70.4064 -0.99542,73.44501 -3.92724,81.29645 -4.37697,11.72157 -11.31271,20.66339 -20.16432,25.9966 -12.74924,7.68157 -18.62798,8.76914 -46.24399,8.55508 -13.590953,-0.10535 -26.134946,-0.46585 -27.875541,-0.8011 z"
     id="path4583"
     inkscape:connector-curvature="0" />
  <path
     style="fill:#ffffff;fill-opacity:0;stroke:#000000;stroke-width:1.40654147;stroke-opacity:1"
     d="m 194.05072,210.15052 0,-109.00697 48.87731,0.0107 c 26.88253,0.006 54.12154,0.61366 60.53115,1.35063 20.14246,2.31599 34.54851,12.51341 43.53814,30.81875 3.52484,7.17753 3.88278,9.33266 3.88278,23.37833 0,12.76647 -0.51789,16.59125 -2.9617,21.87286 -4.12605,8.91733 -11.03823,16.34913 -19.81087,21.30009 -4.10744,2.3181 -7.46808,5.01773 -7.46808,5.99918 0,0.98145 2.86726,2.87947 6.37168,4.21783 9.04429,3.45404 19.59087,14.29021 24.85325,25.53566 12.71089,27.16252 1.36754,62.84184 -24.07846,75.7363 -14.55301,7.37456 -18.77242,7.79363 -78.47233,7.79363 l -55.26287,0 0,-109.00697 z m 98.90265,67.58599 c 7.00895,-2.4997 10.62221,-5.83583 13.78842,-12.73087 5.87168,-12.7867 1.42178,-27.95086 -10.11231,-34.46027 -5.88083,-3.31892 -7.62134,-3.54233 -30.99876,-3.97901 l -24.76809,-0.46267 -0.90129,4.50647 c -1.14834,5.74167 -1.14728,36.93963 0.002,43.88964 l 0.87182,5.27453 23.37554,-0.0618 c 16.00801,-0.0423 25.06731,-0.6651 28.74317,-1.97608 l -5e-5,1e-5 z m -0.71013,-93.18961 c 17.95415,-8.80849 15.67534,-39.69379 -3.25097,-44.0613 -3.09439,-0.71407 -15.20222,-1.31341 -26.90628,-1.33187 l -21.28012,-0.0336 -1.01067,18.86996 c -1.02028,19.0496 -0.28964,27.29187 2.60627,29.40097 0.86981,0.63349 11.28103,0.82132 23.13604,0.41741 16.79058,-0.57208 22.69308,-1.29296 26.70573,-3.26161 z"
     id="path4585"
     inkscape:connector-curvature="0" />
  <path
     style="fill:#ffffff;fill-opacity:0;stroke:#000000;stroke-width:1.40654147;stroke-opacity:1"
     d="m 364.24224,320.98594 c -1.93399,-0.38804 -3.98137,-1.43288 -4.54972,-2.32189 -0.56835,-0.88901 -1.04306,-10.01535 -1.05491,-20.28079 l -0.0215,-18.66439 18.38658,0.14744 c 17.53399,0.14066 18.64094,-0.0209 23.87198,-3.48262 9.9747,-6.60094 9.53595,-2.74762 10.64111,-93.45669 l 0.99641,-81.78345 24.39073,0 24.39072,0 -0.0502,78.41469 c -0.0585,91.44658 -0.66653,101.76957 -6.69782,113.71749 -5.13649,10.17533 -14.60113,19.21471 -25.35183,24.21271 -7.67162,3.56654 -9.04059,3.72266 -34.7109,3.958 -14.69836,0.13474 -28.30665,-0.0724 -30.24064,-0.4605 z"
     id="path4587"
     inkscape:connector-curvature="0" />
  <path
     style="fill:#ffffff;fill-opacity:0;stroke:#000000;stroke-width:1.40654147;stroke-opacity:1"
     d="m 89.917533,444.11237 c 2.020245,-2.7872 0.328082,-2.63237 25.749307,-2.61653 10.40041,0.006 12.64917,-1.23287 15.84584,-4.21962 8.19277,-7.65477 9.77119,-16.13897 4.46949,-24.02408 -3.93326,-5.84987 -10.75018,-6.8654 -22.85025,-6.98085 -12.99552,-0.124 -19.741477,-3.15375 -22.296429,-8.09448 -3.015947,-5.8322 -2.12032,-12.25229 1.778062,-16.78674 3.387247,-3.93992 4.172596,-3.69858 24.657137,-4.18131 12.42648,-0.29283 23.25345,-0.70003 23.5021,3.34543 0.10463,1.70238 -14.5717,1.86968 -28.74558,1.88544 -6.04625,0.007 -12.14464,0.62848 -13.551993,1.38167 -5.337672,2.85663 -3.257591,11.45468 2.550183,13.98657 1.17704,0.51313 7.06513,1.59766 14.60415,2.10616 14.47086,0.97605 19.04773,2.58798 24.61342,10.04262 3.03569,4.06597 5.1313,13.05444 3.86352,18.10565 -1.25418,4.99707 -9.0249,16.60171 -14.74986,17.8971 -29.727874,6.72655 -40.966003,0.25955 -39.439097,-1.84703 z"
     id="path4589"
     inkscape:connector-curvature="0"
     sodipodi:nodetypes="ssssssssscsssssss" />
  <path
     style="fill:#ffffff;fill-opacity:0;stroke:#000000;stroke-width:0.49728751;stroke-opacity:1"
     d="m 248.97529,445.51603 c -8.38825,-1.41245 -15.62255,-6.69169 -19.72995,-14.39797 -1.49085,-2.79711 -1.72226,-3.76315 -2.07543,-8.66394 -0.21862,-3.0337 -0.41041,-14.18726 -0.4262,-24.7857 l -0.0287,-19.26989 2.42844,-0.99458 c 1.70288,-0.69741 2.23101,2.11347 2.23101,2.11347 -0.32198,0.54977 0.30831,5.14693 0.31866,10.07008 0.0208,9.91589 0.77732,31.05724 1.28785,35.99158 0.61212,5.91619 6.06336,11.96578 12.63097,14.01738 6.20205,1.93741 15.08685,1.15605 20.15725,-1.77271 2.7079,-1.56412 6.32759,-5.52095 7.91344,-8.65048 1.82904,-3.60944 2.15868,-7.2633 2.73822,-30.35181 0.38215,-15.2247 0.65748,-20.20299 1.13405,-20.50549 0.34616,-0.21973 1.27944,-0.40293 2.07397,-0.40712 l 1.4446,-0.008 -0.34692,22.25362 c -0.19081,12.23948 -0.56894,23.67401 -0.84027,25.41006 -0.68595,4.38882 -3.00153,8.66702 -6.84686,12.65009 -3.97968,4.12223 -7.60024,5.98199 -13.72494,7.05005 -4.71973,0.82306 -6.66173,0.87019 -10.33919,0.25097 z"
     id="path4593"
     inkscape:connector-curvature="0"
     sodipodi:nodetypes="cssscsssssssscccsssscc" />
  <path
     style="fill:#ffffff;fill-opacity:0;stroke:#000000;stroke-width:0.49728751;stroke-opacity:1"
     d="m 301.71976,446.07805 c -1.55141,-0.16645 -3.00598,-0.48771 -3.23237,-0.71391 -0.74707,-0.74643 -1.00775,-15.12966 -0.75552,-41.68762 l 0.24875,-26.19126 4.77181,-0.35838 c 10.17572,-0.76423 21.41514,0.5003 27.64601,3.11043 8.57009,3.59003 16.09482,11.93139 19.51265,21.63028 1.67465,4.75223 2.09096,12.50511 0.93565,17.4248 -2.24853,9.575 -9.29819,18.27727 -18.45813,22.78516 -5.29183,2.60428 -8.56223,3.35566 -17.16043,3.94264 -7.69295,0.52518 -9.09679,0.53119 -13.50842,0.0579 z m 19.40343,-5.07007 c 5.42999,-0.65191 8.52831,-1.87246 12.67233,-4.99212 6.13553,-4.6189 10.50998,-11.01306 11.80628,-17.25734 0.79076,-3.80905 0.35639,-13.12337 -0.75741,-16.24155 -2.874,-8.04597 -12.49591,-16.77813 -21.02303,-19.079 -8.17966,-2.20711 -18.61084,-2.69021 -20.35819,-0.94285 -0.51606,0.51605 -0.89783,2.41791 -1.18749,5.91563 -0.4843,5.84816 -0.50787,35.42654 -0.0366,45.93262 l 0.31229,6.96203 2.48644,0.30507 c 2.96599,0.3639 10.33492,0.0879 16.08539,-0.60249 z"
     id="path4595"
     inkscape:connector-curvature="0" />
  <path
     style="fill:#ffffff;fill-opacity:0;stroke:#000000;stroke-width:0.49728751;stroke-opacity:1"
     d="m 370.30985,444.70251 c -0.48289,-1.0884 -0.60079,-8.23661 -0.51947,-31.49386 0.0579,-16.54724 0.28784,-31.0929 0.51106,-32.32369 0.31791,-1.75299 0.61699,-2.23779 1.38051,-2.23779 0.78825,0 1.04612,0.47554 1.3483,2.48644 0.2055,1.36754 0.43204,15.80131 0.50343,32.07504 0.11186,25.49981 0.0267,29.78969 -0.61613,31.04375 -1.01623,1.98242 -1.86301,2.12859 -2.6077,0.45011 z"
     id="path4597"
     inkscape:connector-curvature="0" />
  <path
     style="fill:#ffffff;fill-opacity:0;stroke:#000000;stroke-width:0.49728751;stroke-opacity:1"
     d="m 420.49262,446.26361 c -4.96801,-0.93891 -10.68128,-3.31552 -13.66489,-5.68434 -3.30373,-2.62297 -8.45806,-8.22063 -10.73887,-11.66253 -5.19934,-7.84615 -6.20261,-20.12677 -2.4208,-29.63214 4.18211,-10.51148 13.74528,-18.96137 24.85736,-21.96362 5.06163,-1.36755 13.84564,-1.47031 18.54222,-0.21692 19.45833,5.19293 31.88052,24.26613 27.41482,42.09308 -1.98192,7.91177 -6.16577,14.5886 -12.11671,19.33655 -3.73656,2.98121 -9.95745,6.20585 -14.05489,7.28546 -4.2654,1.12386 -13.06232,1.34329 -17.81824,0.44446 z m 16.32637,-4.95682 c 8.49157,-2.1694 16.54811,-8.60154 20.24518,-16.16324 4.51948,-9.24379 4.19926,-19.37656 -0.90366,-28.59403 -2.11128,-3.81365 -8.27762,-9.66752 -12.47871,-11.84639 -9.02353,-4.68 -21.20908,-5.05874 -29.33765,-0.91185 -5.73234,2.92442 -12.55701,9.94913 -15.30104,15.74953 -2.91595,6.16381 -3.42848,14.75456 -1.29227,21.66034 2.89891,9.37138 13.91476,18.99342 23.90088,20.87675 3.0833,0.5815 11.55963,0.15055 15.16727,-0.77111 z"
     id="path4599"
     inkscape:connector-curvature="0" />
  <g
     inkscape:groupmode="layer"
     id="layer2"
     inkscape:label="Layer 1"
     style="display:inline">
    <rect
       style="fill:#ffffff;fill-opacity:0;stroke:#000000;stroke-opacity:1"
       id="rect4621"
       width="467.45029"
       height="429.65637"
       x="45.75045"
       y="58.679928" />
  </g>
  <path
     style="fill:#ffffff;fill-opacity:0;stroke:#000000;stroke-width:1.98915005;stroke-opacity:1"
     d="M 106.96818,540.03611 C 84.254397,536.23818 54.272075,519.19682 38.418483,501.07377 27.834707,488.97492 17.300543,469.64239 12.164674,452.8922 8.7300737,441.69054 8.5153466,430.753 8.6695886,274.86326 8.8201452,122.69861 9.1263269,107.77704 12.320502,96.938324 23.659654,58.46146 51.775644,28.365303 89.110724,14.739887 L 103.98445,9.3117271 270.57536,8.7598712 C 454.16438,8.1517067 448.19681,7.8051226 473.93238,20.570392 c 31.65362,15.70072 53.43219,41.706273 63.95495,76.367932 3.33752,10.993636 3.59589,23.585336 3.65093,177.924936 l 0.0593,166.09404 -5.45128,15.9132 c -10.26982,29.97937 -24.72217,49.15804 -48.97395,64.98975 -8.33711,5.44253 -21.49056,11.73324 -30.45399,14.56479 l -15.77828,4.98434 -164.49949,-0.27089 c -90.47472,-0.14898 -166.73728,-0.64506 -169.47236,-1.10238 z m 30.57309,-102.13785 c 7.11999,-7.62023 7.62165,-8.91483 6.68269,-17.24531 -1.73323,-15.37715 -12.74615,-22.29859 -35.66508,-22.41492 -10.398534,-0.0527 -14.719604,-4.04543 -11.297801,-10.43914 1.497373,-2.79786 4.461031,-3.53693 14.252671,-3.55427 17.76148,-0.0315 27.28083,-1.92858 27.28083,-5.43685 0,-2.46982 -3.43045,-2.82208 -21.1092,-2.16767 -19.218375,0.71142 -21.445564,1.19681 -24.864376,5.41886 -4.950137,6.11316 -4.768478,14.59799 0.412934,19.28712 3.055704,2.76535 8.447302,4.08651 20.201962,4.95024 13.46888,0.98968 16.62061,1.90276 19.70169,5.70774 5.80281,7.16618 4.77482,16.7278 -2.45223,22.80897 -5.41081,4.55289 -7.88894,5.15321 -21.38336,5.18015 -16.590489,0.033 -23.514955,2.33215 -18.247021,6.05833 1.846512,1.3061 9.807001,1.72457 20.886071,1.09797 l 17.90236,-1.01252 7.69786,-8.2387 z m 50.98206,-22.671 0,-30.46811 10.93803,-0.90707 c 11.69329,-0.96969 14.09923,-2.05479 12.01899,-5.42067 -1.63677,-2.64834 -48.57705,-2.84071 -52.72687,-0.21608 -2.33475,1.47664 -1.81309,2.26393 2.61593,3.94782 3.04274,1.15685 8.50934,2.10337 12.14799,2.10337 l 6.61573,0 0.74544,29.33996 c 0.40999,16.13698 1.46452,30.47346 2.3434,31.85885 3.9002,6.14794 5.30136,-1.84406 5.30136,-30.23807 z m 83.8759,25.48941 c 7.63336,-6.79993 9.61416,-15.13855 9.61416,-40.47306 0,-19.94829 -0.49685,-23.93369 -2.98373,-23.93369 -2.47971,0 -2.98372,3.87488 -2.98372,22.93912 0,26.63929 -2.47512,34.82727 -12.01984,39.76303 -8.12767,4.20297 -17.59912,2.56218 -23.89498,-4.13944 -5.01543,-5.33866 -7.46471,-19.96765 -7.72352,-46.13052 -0.0957,-9.67008 -0.78587,-12.43219 -3.10669,-12.43219 -2.50502,0 -2.98373,4.31307 -2.98373,26.88275 l 0,26.88272 6.49641,7.08882 c 9.955,10.86278 29.41857,12.60946 39.58564,3.55246 z m 60.94591,2.42947 c 14.07405,-7.27798 22.17305,-24.56197 18.28146,-39.01424 -2.62001,-9.73 -12.58728,-21.50193 -21.28136,-25.13456 -3.53757,-1.47808 -12.71978,-2.68742 -20.40492,-2.68742 l -13.97302,0 0.93332,33.93054 c 0.51332,18.66179 1.52823,34.89314 2.25534,36.06964 1.84243,2.98112 26.7662,0.6746 34.18918,-3.16396 z m 42.1364,-25.94154 c -0.039,-42.82374 -4.56613,-53.34829 -6.89754,-16.03546 -0.78593,12.57855 -0.78511,28.41766 0.002,35.19803 1.29043,11.11828 1.70001,11.95983 4.17422,8.57614 1.97598,-2.70232 2.73726,-10.46165 2.72149,-27.73871 z m 68.21418,27.96818 c 8.65931,-3.71561 18.33442,-14.50858 21.28057,-23.73935 7.11304,-22.28616 -11.7587,-45.83656 -36.76037,-45.87398 -32.75219,-0.0489 -49.58892,35.49784 -28.29866,59.74607 3.48922,3.97403 9.04603,8.40281 12.34848,9.84178 7.91089,3.447 23.42678,3.45957 31.42998,0.0255 l 0,2e-5 z M 150.37044,317.31254 c 12.12476,-6.20083 22.47611,-17.91882 26.56065,-30.06733 1.80754,-5.37612 2.66916,-32.12245 3.14014,-97.47638 l 0.64908,-90.067314 -26.43302,0.555554 -26.43303,0.55556 -1.00282,82.54973 c -0.55155,45.40235 -1.72298,84.00352 -2.60318,85.78039 -3.64121,7.35046 -13.67656,10.28243 -31.917247,9.32503 l -17.312918,-0.90868 0.559128,22.02459 0.55913,22.0246 6.962025,1.3648 c 3.829114,0.75062 18.027872,1.06463 31.552802,0.69777 22.43434,-0.60852 25.56666,-1.1661 35.71926,-6.35832 z m 281.89123,0.37158 c 12.01005,-5.87597 19.48144,-13.72629 25.60882,-26.90766 3.99741,-8.59929 4.18672,-12.531 4.81579,-100.01362 l 0.65483,-91.062448 -26.51378,0.556118 -26.51376,0.55612 -0.51883,82.6955 -0.51883,82.69551 -6.06796,5.82166 c -5.72894,5.49644 -7.22342,5.87725 -26.74936,6.81626 l -20.68141,0.99458 1.40923,-4.97288 c 0.77509,-2.73508 1.32064,-10.34358 1.21235,-16.90777 -0.33517,-20.3136 -9.38815,-35.84564 -28.66363,-49.17762 l -4.95502,-3.42715 5.96745,-4.51662 c 11.08492,-8.3899 17.04251,-16.43003 20.20991,-27.2745 6.22194,-21.30264 -0.12233,-44.93105 -15.88854,-59.17488 -14.65755,-13.24221 -15.77792,-13.43517 -82.39551,-14.19113 l -60.17179,-0.682808 0,110.657588 0,110.65757 61.3141,-0.60341 61.31412,-0.60339 11.7304,-6.00278 c 7.96979,-4.07837 14.12891,-9.17624 19.21203,-15.90172 4.11489,-5.44442 8.35647,-10.19055 9.42574,-10.54697 1.1404,-0.38015 2.18256,6.60491 2.52089,16.89628 l 0.57676,17.54434 8.95117,1.32865 c 4.92315,0.73076 19.0927,1.02464 31.48789,0.65304 19.47939,-0.58395 23.98692,-1.38514 33.22694,-5.90586 z"
     id="path4627"
     inkscape:connector-curvature="0" />
  <g
     inkscape:groupmode="layer"
     id="layer3"
     inkscape:label="Layer 2">
    <rect
       style="fill:#00ff00;fill-opacity:0;stroke:#000000;stroke-opacity:1"
       id="rect4630"
       width="419.71066"
       height="431.64557"
       x="71.609406"
       y="34.810127" />
    <path
       style="fill:#000000"
       d="M 104.36649,540.50435 C 61.657171,531.48817 27.185751,501.10537 13.738961,460.62604 6.8005209,439.73902 7.0537209,447.3389 7.3987109,270.31849 7.7372609,96.607029 7.3404109,108.8534 13.222681,90.582608 25.760121,51.640167 58.668101,20.869013 98.635721,10.715723 114.87051,6.5914724 121.86239,6.4431058 282.63572,6.8112753 l 154.00004,0.3526586 9.6089,2.2010657 c 42.9834,9.8459214 76.8581,39.9571104 90.244,80.2176084 6.4638,19.441212 6.0119,6.929502 6.411,177.500002 0.2522,107.77132 0.028,158.28192 -0.7345,165.77096 -3.3674,33.05627 -19.5805,63.53294 -44.0531,82.80934 -15.0829,11.88037 -28.5086,18.68503 -46.9026,23.772 l -9.5737,2.6477 -164.00004,0.18926 c -159.35676,0.1839 -164.26243,0.13386 -173.26923,-1.76752 z m 339.22197,-96.27146 c 11.1167,-5.08941 18.2909,-13.41648 21.1009,-24.49176 6.3076,-24.86133 -17.8606,-48.52154 -44.09823,-43.17117 -8.13887,1.65967 -14.7209,5.42856 -20.47417,11.72356 -8.87927,9.71533 -11.49149,23.50481 -6.81861,35.9942 2.33498,6.24082 10.6518,15.59621 16.59867,18.67145 10.0552,5.19975 23.96704,5.72569 33.69144,1.27372 z m -22.95274,-2.52586 c -8.94889,-2.37538 -17.47769,-9.37228 -21.57709,-17.70151 -3.25345,-6.61042 -3.28018,-16.72147 -0.0632,-23.92291 2.85835,-6.3987 10.1574,-13.83087 16.08925,-16.38268 14.41818,-6.20253 31.20138,-1.45501 39.77418,11.25102 13.3537,19.79207 -0.1372,45.70859 -24.5473,47.15643 -3.6717,0.21778 -8.0258,0.0376 -9.6758,-0.40035 z m -289.93179,2.17079 c 5.23495,-2.76709 10.84996,-9.00222 12.43677,-13.8103 1.96189,-5.94459 0.72939,-14.97916 -2.71133,-19.8747 -5.75452,-8.18769 -12.47163,-10.61021 -29.41979,-10.61021 -9.74992,0 -10.10868,-0.081 -12.950779,-2.92308 -3.11993,-3.11993 -3.63536,-5.87104 -1.75973,-9.39266 2.32609,-4.36741 3.52779,-4.61854 22.336649,-4.66777 9.9,-0.0259 18.60678,-0.43165 19.34839,-0.90163 0.74162,-0.46998 1.18501,-1.70059 0.98532,-2.73469 -0.34359,-1.77924 -1.43595,-1.86178 -20.3484,-1.53752 -22.327259,0.38281 -24.277899,0.88715 -27.622209,7.14175 -2.39964,4.48786 -2.36445,9.68109 0.0929,13.71127 3.55642,5.83269 5.80045,6.59211 21.382929,7.23638 12.35035,0.51064 14.62734,0.87433 17.8076,2.84434 9.40039,5.82305 10.99513,17.43693 3.5575,25.90792 -5.58514,6.36113 -9.00164,7.26879 -27.45403,7.29373 -15.082919,0.0204 -16.249999,0.15363 -16.249999,1.85529 0,1.00834 0.3375,2.17365 0.75,2.58958 0.4125,0.41593 8.625,0.59119 18.249999,0.38945 15.55798,-0.32608 17.95146,-0.60541 21.56821,-2.51715 z m 56.8248,1.123 c 0.33385,-0.86998 0.60699,-15.26998 0.60699,-32 l 0,-30.41821 10.75,-0.0153 c 11.25317,-0.016 13.94867,-0.7216 12.9271,-3.38377 -0.54146,-1.41104 -3.69493,-1.60093 -26.5867,-1.60093 -26.16334,0 -28.7079,0.34611 -26.05405,3.5438 0.92256,1.11162 3.78254,1.4562 12.08609,1.4562 l 10.87756,0 0,30.06574 c 0,18.81273 0.38745,30.7897 1.03518,32 1.25191,2.33921 3.5249,2.52306 4.35783,0.35247 z m 76.45107,-0.48964 c 5.56789,-1.66818 11.11887,-6.58639 14.16429,-12.54966 2.42844,-4.75518 2.49922,-5.50849 2.79098,-29.70493 l 0.29934,-24.82602 -2.29934,0.32602 -1.30477,-0.41991 -0.25136,24.24593 c -0.22408,21.61467 -1.91626,25.81069 -3.8959,29.48915 -4.29864,7.9875 -9.76984,11.25136 -19.60911,11.25136 -9.19223,0 -16.47913,-5.82702 -20.0745,-13.99187 -0.48438,-1.1 -1.36207,-13.04864 -1.64652,-26.24864 l -0.51719,-24 -2.5,0 -2.5,0 0,24.5 c 0,23.2251 0.11267,24.70815 2.16527,28.5 6.96272,12.86258 20.20113,17.91599 35.17881,13.42857 z m 61.69582,0.54679 c 16.21821,-4.14876 27.62792,-19.65986 26.18298,-35.59486 -1.01803,-11.22697 -8.60003,-22.78956 -18.43448,-28.11266 -6.4427,-3.48725 -14.85359,-4.95207 -26.2884,-4.57834 l -9.5,0.3105 0.23377,33.93263 c 0.18243,26.48163 -0.48339,34.10874 0.50271,34.73468 2.1964,1.39424 21.01222,0.91739 27.30342,-0.69195 z m -22.87323,-4.14203 c -0.36667,-0.36666 -0.66667,-13.36156 -0.66667,-28.87755 0,-24.09396 0.22313,-28.39607 1.52897,-29.47982 2.52399,-2.09473 17.4651,-0.5831 24.05455,2.43365 7.06029,3.23231 14.71131,11.0726 16.80683,17.22261 2.07349,6.08537 2.04812,13.72213 -0.0663,19.93964 -2.43248,7.15296 -11.25511,15.73623 -18.3367,17.83924 -5.31585,1.57864 -22.00437,2.2386 -23.32073,0.92223 z m 71.09664,-29.71682 c -0.25731,-32.36207 -0.30887,-33.11651 -2.26331,-33.11651 -1.95486,0 -2.00595,0.75457 -2.26371,33.43251 -0.26993,34.22216 -0.006,36.78114 3.49349,33.87679 1.02464,-0.85038 1.24158,-8.02737 1.03353,-34.19279 z M 140.13572,320.65758 c 20.298,-5.96322 31.53566,-17.8407 37.20923,-39.32773 2.13885,-8.1003 2.18406,-9.74331 2.53708,-92.21853 0.19768,-46.18421 0.10013,-85.00441 -0.21679,-86.26712 l -0.57622,-2.29584 -25.22665,0.26713 -25.22665,0.26712 -0.5,81.5 c -0.55371,90.25431 -0.19261,85.61251 -7.11403,91.44823 -7.00486,5.90608 -14.39869,7.00211 -35.135969,5.20845 l -9.75,-0.84333 0,21.07427 c 0,21.0227 0.006,21.07564 2.25,21.63262 6.75447,1.67615 17.31187,2.29666 34.749999,2.04241 16.61214,-0.2422 20.61072,-0.61061 27,-2.48768 z m 280.5,0.55097 c 16.32894,-4.50678 27.77324,-13.26701 34.01484,-26.0371 7.2973,-14.93009 6.9852,-10.1448 6.9852,-107.08884 l 0,-87 -25.2008,-0.26707 -25.20081,-0.26707 -0.34887,80.76707 c -0.25518,59.07523 -0.66924,81.72116 -1.54168,84.31952 -1.55998,4.64603 -6.59213,9.73774 -12.20788,12.35239 -3.92654,1.82816 -5.96551,2.05044 -16,1.74426 -6.325,-0.193 -13.975,-0.418 -17,-0.5 l -5.5,-0.1491 -0.27173,19.92827 c -0.17513,12.84345 0.0985,20.29855 0.76982,20.96982 3.65952,3.65952 49.38405,4.57238 61.50191,1.22785 z m -107.15805,-3.40584 c 16.10618,-4.4883 25.9773,-11.14451 34.05124,-22.96113 12.15792,-17.79373 14.06422,-42.52395 4.7068,-61.06089 -6.06558,-12.01585 -15.57143,-20.91317 -26.96371,-25.2376 -2.50785,-0.95197 -4.69483,-2.13614 -4.85995,-2.63149 -0.16512,-0.49535 2.06766,-2.07428 4.96173,-3.50873 12.44261,-6.16721 21.10141,-15.81164 24.83839,-27.66575 2.50452,-7.94464 2.99097,-23.68995 0.9934,-32.15451 -3.4582,-14.65389 -14.99163,-29.31895 -28.06985,-35.69155 -12.20944,-5.94928 -17.39956,-6.36108 -76.5,-6.06973 l -53,0.26128 -0.25755,108.5 c -0.14165,59.675 -0.0328,109.08986 0.24195,109.8108 0.40597,1.06538 10.93927,1.24376 56.25755,0.95271 53.68992,-0.34481 56.04892,-0.43915 63.6,-2.54341 z m -72.67528,-38.88677 c -0.36667,-0.36666 -0.66667,-12.01852 -0.66667,-25.89301 0,-22.08063 0.19725,-25.30203 1.58179,-25.83333 2.63645,-1.0117 37.47278,-0.66416 44.28898,0.44185 11.86239,1.92481 18.77718,7.59599 21.78205,17.8646 3.07414,10.50529 -0.96252,23.61606 -8.88541,28.85918 -6.34324,4.19775 -13.29654,5.19468 -36.35074,5.21176 -11.59584,0.009 -21.38334,-0.28438 -21.75,-0.65105 z m 0.5641,-92.10208 c -0.97697,-0.67202 -1.20724,-6.15302 -1,-23.80215 l 0.26923,-22.9291 23.5,0 c 12.925,0 24.70282,0.33737 26.17293,0.74971 4.25625,1.1938 8.92095,5.75642 11.4602,11.20942 5.7753,12.40239 0.11157,28.91462 -11.33867,33.05712 -3.81216,1.37918 -9.19944,1.822 -26.29446,2.16131 -11.825,0.2347 -22.07115,0.0339 -22.76923,-0.44631 z"
       id="path4581"
       inkscape:connector-curvature="0"
       sodipodi:nodetypes="sssssscssscsscssssssssscsssssccsssssssssssssssssssssscssssscsssssscccssssscccssssssscscscssssssccssssssssscccssscscssssscccssssscscssssssssssscscsscssssscccscsssssc" />
  </g>
</svg>
