<?xml version="1.0" encoding="UTF-8" ?>
<!DOCTYPE svg PUBLIC "-//W3C//DTD SVG 1.1//EN" "http://www.w3.org/Graphics/SVG/1.1/DTD/svg11.dtd">
<svg width="64pt" height="64pt" viewBox="0 0 64 64" version="1.1" xmlns="http://www.w3.org/2000/svg">
<g id="#ef007dff">
<path fill="#ef007d" opacity="1.00" d=" M 22.12 5.17 C 23.75 3.59 25.45 2.08 27.22 0.65 C 28.29 2.66 29.63 4.64 29.82 6.97 C 30.64 14.43 29.25 21.88 27.87 29.19 C 30.91 29.19 33.95 29.19 36.99 29.18 C 37.73 25.38 37.95 20.83 41.41 18.36 C 46.23 14.26 54.42 16.00 57.22 21.65 C 59.14 25.86 58.06 31.52 54.00 34.10 C 50.88 36.48 46.80 35.96 43.13 35.98 C 42.56 43.95 39.54 52.05 41.95 59.95 C 40.77 61.47 39.32 62.75 37.88 64.00 L 36.96 64.00 C 31.25 55.60 35.56 45.19 36.18 35.98 C 33.13 35.97 30.09 35.97 27.05 35.97 C 26.17 39.25 26.36 43.15 23.80 45.71 C 20.30 49.80 13.44 50.25 9.37 46.77 C 4.46 43.03 4.71 34.42 10.04 31.16 C 13.18 28.86 17.21 29.13 20.89 29.18 C 22.08 21.32 24.63 13.00 22.12 5.17 M 43.89 29.20 C 46.24 28.90 49.46 30.09 50.96 27.65 C 51.87 25.57 50.65 22.40 48.00 22.89 C 44.48 22.46 44.69 26.89 43.89 29.20 M 12.92 37.19 C 13.04 38.56 12.31 40.39 13.59 41.41 C 14.95 42.81 17.90 42.73 18.85 40.87 C 19.38 39.27 19.68 37.60 20.08 35.96 C 17.63 35.96 15.01 35.62 12.92 37.19 Z" />
</g>
</svg>
