<?xml version="1.0" encoding="UTF-8" ?>
<!DOCTYPE svg PUBLIC "-//W3C//DTD SVG 1.1//EN" "http://www.w3.org/Graphics/SVG/1.1/DTD/svg11.dtd">
<svg width="117pt" height="72pt" viewBox="0 0 117 72" version="1.1" xmlns="http://www.w3.org/2000/svg">
<g id="#ef007dff">
<path fill="#ef007d" opacity="1.00" d=" M 13.00 16.00 C 18.34 16.00 23.68 16.01 29.01 15.98 C 38.01 15.38 47.22 22.59 48.37 31.57 C 49.34 34.37 49.54 37.78 48.23 40.50 C 47.61 48.22 40.45 54.34 33.16 55.87 C 26.45 56.20 19.72 55.90 13.00 56.00 C 13.00 42.67 13.00 29.33 13.00 16.00 M 25.63 28.77 C 25.62 33.61 25.62 38.46 25.63 43.30 C 28.34 43.15 31.41 43.64 33.70 41.83 C 37.30 39.07 37.15 32.96 33.68 30.17 C 31.40 28.34 28.32 28.97 25.63 28.77 Z" />
<path fill="#ef007d" opacity="1.00" d=" M 50.00 16.01 C 54.18 16.31 58.55 15.28 62.59 16.57 C 61.70 18.60 62.07 20.89 61.98 23.04 C 62.03 34.02 61.99 45.01 62.00 56.00 C 58.00 56.00 54.00 56.00 50.00 56.00 C 50.00 42.67 50.00 29.34 50.00 16.01 Z" />
<path fill="#ef007d" opacity="1.00" d=" M 76.11 40.91 C 72.12 32.25 66.11 24.55 62.54 15.70 C 67.26 16.27 72.02 15.92 76.76 15.98 C 78.95 19.22 80.71 22.72 82.63 26.12 C 84.70 22.82 86.57 19.42 88.43 16.00 C 93.37 16.00 98.31 15.99 103.25 16.00 C 98.69 24.43 93.56 32.57 89.15 41.07 C 88.77 46.03 89.12 51.02 89.00 56.00 C 84.75 56.00 80.49 56.00 76.24 56.00 C 76.14 50.97 76.46 45.93 76.11 40.91 Z" />
</g>
</svg>
