<?xml version="1.0" encoding="UTF-8" ?>
<!DOCTYPE svg PUBLIC "-//W3C//DTD SVG 1.1//EN" "http://www.w3.org/Graphics/SVG/1.1/DTD/svg11.dtd">
<svg width="500pt" height="204pt" viewBox="0 0 500 204" version="1.1" xmlns="http://www.w3.org/2000/svg">
<g id="#231f20ff">
<path fill="#231f20" opacity="1.00" d=" M 115.47 17.74 C 125.30 16.46 137.28 16.32 144.33 24.52 C 151.43 33.70 151.31 46.05 151.62 57.10 C 151.50 69.54 152.42 82.46 148.02 94.34 C 145.68 100.92 139.79 105.89 132.99 107.36 C 125.13 109.16 116.43 108.86 109.12 105.22 C 104.24 102.65 100.71 97.94 99.09 92.72 C 95.56 81.84 96.35 70.27 96.25 59.00 C 96.20 49.37 96.28 39.42 99.84 30.33 C 102.48 23.80 108.54 18.95 115.47 17.74 M 120.46 30.75 C 117.23 31.94 115.63 35.34 114.82 38.46 C 113.32 44.87 113.36 51.50 113.29 58.04 C 113.33 65.85 113.10 73.68 113.85 81.46 C 114.39 85.26 114.96 89.36 117.51 92.41 C 121.23 96.77 129.40 95.80 131.59 90.35 C 135.23 81.74 134.02 72.13 134.54 63.03 C 134.13 54.06 135.05 44.77 132.13 36.12 C 130.79 31.30 124.99 28.67 120.46 30.75 Z" />
<path fill="#231f20" opacity="1.00" d=" M 343.41 17.68 C 351.45 16.82 360.37 16.33 367.53 20.77 C 374.09 25.05 377.16 32.87 378.09 40.37 C 379.72 50.82 379.08 61.41 379.16 71.94 C 378.58 81.84 378.41 92.84 371.70 100.85 C 365.07 108.31 354.06 109.36 344.77 107.82 C 337.93 107.01 331.34 102.98 328.33 96.67 C 324.20 88.46 323.97 79.01 323.63 70.02 C 323.77 57.49 322.77 44.58 326.63 32.47 C 328.92 24.89 335.55 18.91 343.41 17.68 M 350.15 30.09 C 345.42 30.39 342.78 35.11 342.08 39.31 C 340.06 50.74 340.59 62.41 340.77 73.95 C 341.25 79.64 341.25 85.63 343.82 90.86 C 345.78 95.24 351.93 96.59 355.89 94.16 C 359.08 92.43 360.19 88.65 360.91 85.34 C 362.79 74.68 362.31 63.80 362.25 53.02 C 361.78 46.90 361.79 40.51 359.28 34.80 C 357.69 31.39 353.84 29.47 350.15 30.09 Z" />
<path fill="#231f20" opacity="1.00" d=" M 42.14 18.45 C 47.59 18.54 53.05 18.51 58.50 18.49 C 58.46 43.12 58.51 67.75 58.48 92.38 C 66.86 92.27 75.25 92.40 83.64 92.30 C 83.59 97.11 83.59 101.92 83.64 106.74 C 69.82 106.67 56.01 106.64 42.19 106.75 C 41.89 77.32 41.96 47.88 42.14 18.45 Z" />
<path fill="#231f20" opacity="1.00" d=" M 215.28 18.47 C 220.45 18.53 225.61 18.52 230.77 18.47 C 230.74 47.89 230.69 77.31 230.79 106.74 C 223.42 106.66 216.05 106.68 208.68 106.71 C 201.85 86.15 194.56 65.75 188.03 45.10 C 187.63 45.12 186.84 45.16 186.44 45.18 C 186.59 65.68 186.41 86.19 186.54 106.70 C 181.24 106.67 175.94 106.70 170.65 106.68 C 170.75 77.29 170.68 47.89 170.68 18.50 C 178.25 18.49 185.82 18.50 193.40 18.50 C 199.48 35.46 205.31 52.51 211.27 69.52 C 212.32 72.31 212.76 75.53 215.15 77.58 C 215.50 57.88 215.23 38.17 215.28 18.47 Z" />
<path fill="#231f20" opacity="1.00" d=" M 398.49 18.49 C 406.04 18.51 413.60 18.47 421.15 18.52 C 427.31 36.92 433.97 55.15 440.21 73.53 C 440.57 74.85 441.51 75.81 442.67 76.49 C 442.99 57.16 442.77 37.83 442.79 18.50 C 447.99 18.52 453.19 18.50 458.40 18.49 C 458.34 47.90 458.33 77.31 458.41 106.71 C 450.99 106.68 443.58 106.68 436.16 106.70 C 429.79 87.06 422.89 67.60 416.41 48.00 C 416.05 46.87 415.30 46.06 414.17 45.56 C 413.96 65.95 414.12 86.35 414.07 106.74 C 408.87 106.87 403.67 106.59 398.47 106.72 C 398.53 77.31 398.48 47.90 398.49 18.49 Z" />
<path fill="#231f20" opacity="1.00" d=" M 281.07 18.50 C 288.19 18.48 295.63 21.61 299.35 27.93 C 304.58 36.63 304.57 47.16 305.20 56.99 C 305.15 69.15 306.16 81.93 301.18 93.36 C 297.78 101.26 289.56 106.76 280.93 106.70 C 270.92 106.69 260.91 106.72 250.90 106.66 C 250.88 79.76 250.91 52.87 250.88 25.98 C 250.88 23.47 251.03 20.96 251.20 18.45 C 261.16 18.56 271.11 18.45 281.07 18.50 M 267.66 31.73 C 267.58 52.31 267.69 72.90 267.61 93.49 C 272.90 93.11 279.47 94.93 283.53 90.49 C 287.95 85.44 287.54 78.23 288.23 71.97 C 288.45 62.30 288.79 52.56 287.29 42.97 C 286.57 39.29 285.11 35.24 281.77 33.16 C 277.39 31.03 272.36 31.84 267.66 31.73 Z" />
<path fill="#231f20" opacity="1.00" d=" M 72.30 123.88 C 77.95 123.94 83.60 123.92 89.25 123.89 C 94.48 136.53 99.14 149.41 104.08 162.17 C 104.65 163.41 105.35 164.56 106.19 165.65 C 106.71 151.78 106.22 137.89 106.43 124.01 C 110.43 123.85 114.44 123.85 118.42 124.28 C 118.35 144.79 118.35 165.30 118.42 185.81 C 112.75 185.95 106.90 186.70 101.32 185.63 C 99.34 181.79 98.29 177.55 96.66 173.56 C 93.14 163.89 89.27 154.34 86.05 144.57 C 85.15 144.27 84.32 143.38 83.37 143.51 C 82.99 144.57 82.69 145.66 82.37 146.74 C 82.82 146.94 83.73 147.34 84.19 147.54 C 83.94 160.41 84.63 173.31 83.82 186.15 C 79.95 186.07 76.09 186.07 72.23 186.11 C 72.26 165.37 72.12 144.62 72.30 123.88 Z" />
<path fill="#231f20" opacity="1.00" d=" M 163.83 128.72 C 167.75 124.01 174.30 123.28 180.02 122.99 C 185.26 123.11 191.20 123.79 194.92 127.92 C 198.35 131.60 198.44 136.94 198.58 141.67 C 194.43 141.65 190.28 141.65 186.13 141.66 C 185.75 138.30 185.35 134.75 182.64 132.38 C 179.40 132.18 176.09 132.46 173.55 134.68 C 173.43 137.77 172.37 141.60 175.02 143.97 C 181.69 150.47 192.37 152.20 197.15 160.78 C 201.19 168.76 199.54 181.15 190.46 184.91 C 184.05 187.40 176.80 187.79 170.12 186.15 C 166.31 185.20 162.71 182.80 161.03 179.16 C 159.13 175.47 159.29 171.22 159.19 167.20 C 163.51 167.23 167.84 167.15 172.16 167.21 C 172.28 169.55 172.45 171.89 172.61 174.24 C 173.47 175.27 174.32 176.31 175.17 177.36 C 178.51 177.76 183.35 178.82 185.10 174.99 C 187.97 170.95 185.23 165.90 181.56 163.53 C 174.19 158.19 163.94 154.95 160.76 145.52 C 159.75 139.87 159.68 133.22 163.83 128.72 Z" />
<path fill="#231f20" opacity="1.00" d=" M 428.63 124.09 C 434.43 122.66 440.62 122.68 446.37 124.37 C 451.48 125.92 455.34 130.43 456.69 135.52 C 459.15 144.14 458.19 153.17 458.37 162.01 C 458.07 168.58 457.63 175.83 453.22 181.11 C 449.32 185.87 442.81 187.01 436.99 187.14 C 431.78 186.83 426.03 186.21 422.11 182.37 C 419.01 179.68 417.57 175.66 416.77 171.74 C 415.31 163.92 415.67 155.94 415.72 148.03 C 416.13 142.06 416.45 135.74 419.66 130.51 C 421.74 127.37 424.96 124.98 428.63 124.09 M 433.58 132.52 C 431.54 134.59 429.84 137.09 429.57 140.07 C 428.42 149.61 428.26 159.32 429.43 168.87 C 429.83 171.80 430.57 175.16 433.20 176.92 C 436.57 178.77 441.75 178.00 443.26 174.06 C 446.21 166.41 445.00 158.03 445.29 150.02 C 445.05 144.01 445.36 136.86 440.45 132.50 C 438.15 132.48 435.86 132.49 433.58 132.52 Z" />
<path fill="#231f20" opacity="1.00" d=" M 42.27 123.95 C 46.39 123.89 50.52 123.88 54.64 124.04 C 54.68 144.72 54.66 165.40 54.64 186.09 C 50.52 186.08 46.39 186.09 42.27 186.13 C 41.74 171.44 42.14 156.72 42.02 142.02 C 42.04 136.00 41.89 129.97 42.27 123.95 Z" />
<path fill="#231f20" opacity="1.00" d=" M 209.75 124.35 C 212.82 123.95 215.91 123.85 219.00 123.90 C 229.88 124.02 240.76 123.80 251.63 124.02 C 251.66 127.41 251.66 130.81 251.67 134.21 C 246.85 134.18 242.03 134.17 237.21 134.20 C 237.21 151.38 237.16 168.56 237.23 185.75 C 232.97 186.17 228.68 186.14 224.41 186.03 C 224.40 168.76 224.36 151.48 224.42 134.21 C 219.54 134.17 214.66 134.19 209.78 134.17 C 209.81 130.89 209.81 127.62 209.75 124.35 Z" />
<path fill="#231f20" opacity="1.00" d=" M 263.71 124.31 C 274.98 123.53 286.30 124.01 297.59 124.04 C 297.60 127.20 297.60 130.36 297.62 133.53 C 290.67 133.48 283.71 133.47 276.76 133.53 C 276.66 138.60 276.71 143.66 276.67 148.73 C 283.02 148.79 289.37 148.82 295.72 148.70 C 296.13 151.93 296.14 155.19 295.84 158.43 C 289.32 157.95 282.62 159.30 276.28 157.34 C 276.97 163.65 276.43 170.00 276.86 176.31 C 283.99 177.00 291.20 176.39 298.36 176.56 C 298.36 179.64 298.38 182.73 298.42 185.82 C 286.87 186.21 275.26 186.36 263.71 185.73 C 263.83 165.26 263.80 144.78 263.71 124.31 Z" />
<path fill="#231f20" opacity="1.00" d=" M 312.79 185.79 C 312.87 165.25 312.79 144.72 312.83 124.18 C 320.22 123.71 327.64 123.98 335.05 123.93 C 339.95 123.89 345.49 125.08 348.37 129.44 C 351.93 135.18 352.22 142.76 349.51 148.90 C 348.04 152.18 344.69 153.81 341.66 155.34 C 345.50 157.04 350.01 159.25 350.55 163.98 C 351.42 171.32 351.28 178.75 351.78 186.13 C 347.67 186.16 343.55 186.13 339.45 185.72 C 338.14 180.21 338.57 174.55 338.50 168.95 C 338.48 166.21 337.77 163.05 335.22 161.56 C 332.34 159.91 328.87 160.55 325.71 160.35 C 325.77 168.93 325.76 177.52 325.72 186.11 C 321.41 186.12 317.09 186.16 312.79 185.79 M 325.70 133.46 C 325.78 139.31 325.72 145.15 325.75 150.99 C 328.83 150.95 331.92 150.79 334.99 150.45 C 338.26 146.57 339.72 140.74 337.03 136.15 C 334.70 132.12 329.49 133.82 325.70 133.46 Z" />
<path fill="#231f20" opacity="1.00" d=" M 367.38 124.02 C 378.49 123.85 389.59 123.92 400.70 123.98 C 400.73 127.17 400.74 130.35 400.79 133.55 C 393.85 133.45 386.90 133.50 379.96 133.51 C 379.69 138.57 379.82 143.65 379.74 148.72 C 386.08 148.80 392.42 148.82 398.76 148.70 C 399.27 151.92 399.29 155.20 398.87 158.44 C 392.49 158.31 386.11 158.35 379.73 158.40 C 379.85 164.46 379.70 170.52 379.89 176.58 C 387.15 176.57 394.41 176.62 401.67 176.55 C 401.65 179.74 401.65 182.92 401.65 186.11 C 390.22 186.04 378.79 186.14 367.36 186.06 C 367.34 165.38 367.29 144.70 367.38 124.02 Z" />
</g>
</svg>
