<?xml version="1.0" encoding="UTF-8" ?>
<!DOCTYPE svg PUBLIC "-//W3C//DTD SVG 1.1//EN" "http://www.w3.org/Graphics/SVG/1.1/DTD/svg11.dtd">
<svg width="122pt" height="72pt" viewBox="0 0 122 72" version="1.1" xmlns="http://www.w3.org/2000/svg">
<g id="#ef007dff">
<path fill="#ef007d" opacity="1.00" d=" M 6.03 16.06 C 7.58 16.10 9.13 16.14 10.69 16.20 C 10.83 21.92 10.71 27.65 10.77 33.37 C 12.90 33.34 15.02 33.32 17.15 33.29 C 17.12 34.56 17.07 35.83 17.02 37.11 C 13.36 37.46 9.66 37.45 6.00 37.11 C 6.02 30.09 5.97 23.08 6.03 16.06 Z" />
<path fill="#ef007d" opacity="1.00" d=" M 24.24 16.26 C 27.22 15.91 31.03 15.19 33.26 17.75 C 35.64 19.87 34.84 23.36 35.16 26.17 C 35.02 29.53 35.60 33.46 33.03 36.09 C 29.80 38.81 24.46 38.32 21.55 35.41 C 19.51 31.97 20.31 27.74 20.21 23.94 C 20.14 20.97 20.90 17.12 24.24 16.26 M 26.11 34.26 C 27.49 34.03 29.07 34.04 29.92 32.71 C 30.19 28.86 30.02 24.99 30.02 21.13 C 29.47 20.60 28.37 19.54 27.82 19.01 C 23.08 22.42 25.14 29.41 26.11 34.26 Z" />
<path fill="#ef007d" opacity="1.00" d=" M 40.04 16.15 C 42.07 16.10 44.11 16.09 46.15 16.08 C 47.90 19.92 49.02 24.07 51.23 27.70 C 51.73 23.81 51.03 19.84 51.90 15.99 C 53.27 16.06 54.63 16.11 56.00 16.17 C 56.00 23.27 56.01 30.36 55.99 37.45 C 53.97 37.40 51.94 37.34 49.92 37.29 C 48.15 33.07 46.79 28.68 44.79 24.57 C 44.50 28.78 44.65 33.01 44.62 37.23 C 43.09 37.35 41.56 37.41 40.04 37.47 C 39.98 30.36 39.98 23.26 40.04 16.15 Z" />
<path fill="#ef007d" opacity="1.00" d=" M 61.14 16.23 C 65.03 16.31 69.31 15.29 72.90 17.22 C 75.82 19.43 75.77 23.61 75.97 26.92 C 75.79 30.43 75.69 35.42 71.73 36.81 C 68.22 37.59 64.60 37.34 61.04 37.23 C 61.05 30.23 60.87 23.23 61.14 16.23 M 65.94 19.84 C 65.91 24.55 65.95 29.25 65.99 33.96 C 66.75 33.99 68.26 34.05 69.01 34.08 C 71.58 29.94 71.11 24.64 70.02 20.10 C 68.66 20.01 67.30 19.92 65.94 19.84 Z" />
<path fill="#ef007d" opacity="1.00" d=" M 81.53 18.46 C 83.05 15.81 86.42 15.81 89.10 15.97 C 91.95 15.75 94.73 18.08 94.94 20.95 C 95.72 25.39 95.71 30.08 94.41 34.41 C 91.79 39.23 84.29 38.73 81.09 34.71 C 79.88 29.39 79.38 23.61 81.53 18.46 M 86.04 20.08 C 85.27 24.64 85.30 29.36 85.99 33.93 C 87.39 33.87 89.13 34.34 89.89 32.76 C 90.39 28.88 90.46 24.90 89.83 21.03 C 89.46 19.27 87.29 19.04 86.04 20.08 Z" />
<path fill="#ef007d" opacity="1.00" d=" M 100.08 16.15 C 102.07 16.10 104.06 16.01 106.04 16.17 C 108.50 19.65 108.75 24.27 111.47 27.63 C 111.77 23.80 111.53 19.95 111.87 16.12 C 113.24 16.11 114.62 16.10 116.00 16.09 C 116.00 23.21 116.01 30.34 115.99 37.47 C 114.03 37.36 112.04 37.45 110.13 36.97 C 107.92 33.04 107.04 28.49 104.87 24.52 C 104.56 28.78 104.73 33.04 104.68 37.30 C 103.12 37.32 101.55 37.25 99.99 37.14 C 100.06 30.14 99.92 23.14 100.08 16.15 Z" />
<path fill="#ef007d" opacity="1.00" d=" M 6.02 40.91 C 7.25 41.01 8.48 41.11 9.72 41.21 C 9.87 46.10 9.83 50.99 9.77 55.88 C 8.52 55.91 7.27 55.94 6.02 55.97 C 5.99 50.95 5.99 45.93 6.02 40.91 Z" />
<path fill="#ef007d" opacity="1.00" d=" M 13.88 41.01 C 15.51 41.00 17.15 40.99 18.79 40.98 C 20.20 44.07 21.40 47.26 22.96 50.28 C 23.04 47.18 23.00 44.07 23.01 40.96 C 24.17 41.00 25.33 41.04 26.50 41.09 C 26.53 46.04 26.65 51.00 26.38 55.95 C 24.78 55.95 23.17 55.95 21.57 55.92 C 20.27 53.09 19.25 50.11 17.61 47.45 C 17.42 50.25 17.43 53.07 17.40 55.88 C 16.56 55.90 14.88 55.92 14.05 55.94 C 14.14 50.96 13.30 45.99 13.88 41.01 Z" />
<path fill="#ef007d" opacity="1.00" d=" M 38.49 41.61 C 41.87 39.76 46.33 40.55 48.27 44.04 C 47.80 44.51 46.87 45.44 46.40 45.91 C 44.47 45.40 42.99 42.63 40.90 44.04 C 41.60 47.60 48.11 47.46 47.93 51.89 C 47.84 56.66 41.79 56.67 38.48 55.48 C 36.67 54.76 37.03 52.52 36.72 50.99 C 37.88 51.00 39.04 51.01 40.20 51.03 C 41.05 52.47 42.04 54.53 43.76 52.74 C 43.58 50.21 40.43 49.79 38.87 48.24 C 36.43 46.99 36.23 43.12 38.49 41.61 Z" />
<path fill="#ef007d" opacity="1.00" d=" M 50.23 41.12 C 54.09 40.94 57.96 40.95 61.83 41.11 C 61.78 41.78 61.69 43.12 61.65 43.79 C 60.40 43.82 59.14 43.85 57.89 43.88 C 57.88 47.89 57.92 51.90 57.83 55.92 C 56.60 55.89 55.36 55.86 54.13 55.83 C 53.95 51.85 54.02 47.87 54.02 43.89 C 52.74 43.84 51.47 43.78 50.20 43.72 C 50.21 43.07 50.22 41.77 50.23 41.12 Z" />
<path fill="#ef007d" opacity="1.00" d=" M 64.36 41.10 C 67.58 40.96 70.81 40.96 74.03 41.12 C 73.94 41.76 73.76 43.05 73.67 43.69 C 71.90 43.73 70.12 43.76 68.35 43.80 C 68.39 44.67 68.42 45.55 68.45 46.43 C 70.30 46.73 72.16 47.03 74.01 47.38 C 73.31 50.03 70.41 49.39 68.34 49.82 C 68.34 50.64 68.35 52.30 68.35 53.12 C 70.23 53.13 72.11 53.15 73.99 53.18 C 73.97 53.86 73.93 55.21 73.91 55.89 C 70.73 55.96 67.55 55.97 64.37 55.88 C 64.27 50.95 64.27 46.03 64.36 41.10 Z" />
<path fill="#ef007d" opacity="1.00" d=" M 77.32 41.07 C 80.15 41.03 83.01 40.80 85.84 41.18 C 87.99 41.95 87.93 44.43 88.17 46.31 C 87.62 46.88 86.53 48.02 85.99 48.59 C 86.63 49.00 87.28 49.41 87.93 49.83 C 87.96 51.95 87.98 54.06 87.97 56.18 C 86.78 56.03 85.61 55.84 84.44 55.59 C 84.05 53.80 83.95 51.96 83.73 50.14 C 83.15 50.09 82.00 49.98 81.43 49.93 C 81.36 51.96 81.27 53.99 81.09 56.01 C 80.21 55.99 78.45 55.93 77.56 55.91 C 77.00 50.98 77.27 46.01 77.32 41.07 M 81.27 43.82 C 81.33 45.08 81.40 46.34 81.48 47.61 C 83.41 47.21 84.19 45.79 84.30 43.96 C 83.29 43.91 82.28 43.86 81.27 43.82 Z" />
<path fill="#ef007d" opacity="1.00" d=" M 92.01 41.01 C 95.01 41.00 98.01 41.00 101.01 41.01 C 101.00 41.69 100.97 43.06 100.96 43.74 C 99.20 43.75 97.44 43.75 95.68 43.75 C 95.72 44.56 95.79 46.18 95.82 46.98 C 97.50 46.97 99.18 46.94 100.86 46.95 C 100.80 47.59 100.68 48.87 100.61 49.52 C 98.99 49.51 97.36 49.49 95.73 49.49 C 95.73 50.40 95.72 52.22 95.71 53.14 C 97.47 53.14 99.24 53.14 101.00 53.14 C 101.00 53.84 101.00 55.24 101.00 55.94 C 98.01 55.94 95.01 55.95 92.02 55.95 C 91.99 50.97 92.00 45.99 92.01 41.01 Z" />
<path fill="#ef007d" opacity="1.00" d=" M 105.12 42.77 C 107.81 40.18 113.61 39.72 115.79 43.15 C 116.17 46.57 116.14 50.05 115.85 53.47 C 113.59 57.50 105.72 57.18 104.84 52.21 C 103.87 49.10 104.80 45.90 105.12 42.77 M 108.97 53.25 C 109.73 53.22 111.26 53.16 112.02 53.13 C 112.05 50.08 112.21 47.01 111.91 43.97 C 111.42 43.78 110.44 43.42 109.95 43.23 C 107.57 45.88 108.83 50.00 108.97 53.25 Z" />
</g>
</svg>
